<svg version="1.1" xmlns="http://www.w3.org/2000/svg" xmlns:xlink="http://www.w3.org/1999/xlink" x="0px" y="0px" width="74px" height="74px" viewBox="0 0 74 74" style="enable-background:new 0 0 74 74;" xml:space="preserve">
	<path style="fill:#888888;" d="M37,58.5c-11.85,0-21.5-9.65-21.5-21.5S25.15,15.5,37,15.5S58.5,25.15,58.5,37S48.85,58.5,37,58.5zM37,17.5c-10.75,0-19.5,8.75-19.5,19.5S26.25,56.5,37,56.5S56.5,47.75,56.5,37S47.75,17.5,37,17.5z"/>
	<path style="fill:#888888;" d="M42.5,29.24c-0.57-0.14-1.82-0.25-2.8-0.25c-3.26,0-5.87,1.64-6.92,4.8h7.51v1.89h-7.93c-0.04,0.43-0.07,0.91-0.07,1.38c0,0.43,0.03,0.85,0.07,1.25h7.93v1.89h-7.56c1.03,3.24,3.66,4.91,6.96,4.91c0.97,0,2.23-0.08,2.8-0.25v2.25c-0.54,0.18-1.82,0.29-2.8,0.29c-4.55,0-8.46-2.39-9.63-7.21h-2.94v-1.89h2.63c-0.04-0.4-0.06-0.83-0.06-1.27c0-0.47,0.03-0.92,0.06-1.36h-2.63v-1.89h2.95c1.21-4.76,5.11-7.12,9.62-7.12c0.97,0,2.25,0.13,2.8,0.31V29.24z"/>
</svg>
